# xmcd
#
# Track frame offsets:
#	150
#	18312
#	32637
#	51607
#	66905
#	77335
#	89505
#	102545
#	121885
#	137052
#	149625
#	161942
#	177420
#	190125
#	203047
#	218037
#	232762
#	243402
#	253675
#	269710
#	286997
#	300007
#
# Disc length: 4229 seconds
#
# Revision: 2
# Processed by: cddbd v1.5.2PL0 Copyright (c) Steve Scherf et al.
# Submitted via: audiograbber 1.83.01
#
DISCID=43108316
DTITLE=Various Artist - The best of Country Music vol.3
DYEAR=1988
DGENRE=Country
TTITLE0=Dan Hill - Can't we try
TTITLE1=Rosanne Cash - Tennessee flat top box
TTITLE2=Exile - I can't get close enough
TTITLE3=Billy Joe Shaver - Sweet mama
TTITLE4=Asleep At The Wheel - Blowin' like a bandit
TTITLE5=Rattlesnake Annie - Outskirts of town
TTITLE6=George Jones - The bird
TTITLE7=T.G.Sheppard - One for the money
TTITLE8=Merle Haggard - Chill factor
TTITLE9=Gene Watson - Honky tonk crazy
TTITLE10=Bobby Lee Springfield - Hank drank
TTITLE11=Tammy Wynette - Talkin' to myself again
TTITLE12=Sweethearts Of The Rodeo - Since I found you
TTITLE13=Janie Frickie - Are you satisfied
TTITLE14=Mickey Gilley - Doo-wah days
TTITLE15=Billy Joe Shaver - Street walkin' woman
TTITLE16=Willie Nelson - Island in the sea
TTITLE17=Ricky Van Shelton - I don't care
TTITLE18=Rosanne Cash - Rosie strike back
TTITLE19=Rodney Crowell - Stay (don't be cruel)
TTITLE20=The O'Kanes - Oh darlin
TTITLE21=T.G.Sheppard - Walk of life
EXTD=
EXTT0=
EXTT1=
EXTT2=
EXTT3=
EXTT4=
EXTT5=
EXTT6=
EXTT7=
EXTT8=
EXTT9=
EXTT10=
EXTT11=
EXTT12=
EXTT13=
EXTT14=
EXTT15=
EXTT16=
EXTT17=
EXTT18=
EXTT19=
EXTT20=
EXTT21=
PLAYORDER=
